<svg xmlns="http://www.w3.org/2000/svg" xmlns:xlink="http://www.w3.org/1999/xlink" width="101" height="101" viewBox="0 0 101 101">
  <defs>
    <clipPath xmlns="http://www.w3.org/2000/svg" id="clip-path-corners-square-color-0-0-6361"><path clip-rule="evenodd" d="M 12 39.5v 22a 27.5 27.5, 0, 0, 0, 27.5 27.5h 22a 27.5 27.5, 0, 0, 0, 27.5 -27.5v -22a 27.5 27.5, 0, 0, 0, -27.5 -27.5h -22a 27.5 27.5, 0, 0, 0, -27.5 27.5M 39.5 23h 22a 16.5 16.5, 0, 0, 1, 16.5 16.5v 22a 16.5 16.5, 0, 0, 1, -16.5 16.5h -22a 16.5 16.5, 0, 0, 1, -16.5 -16.5v -22a 16.5 16.5, 0, 0, 1, 16.5 -16.5" transform="rotate(0,50.5,50.5)"/></clipPath>
  </defs>
  <rect xmlns="http://www.w3.org/2000/svg" x="12" y="12" height="77" width="77" clip-path="url('#clip-path-corners-square-color-0-0-6361')" fill="#2c303a"/>
</svg>