<svg xmlns="http://www.w3.org/2000/svg" xmlns:xlink="http://www.w3.org/1999/xlink" width="101" height="101" viewBox="0 0 101 101">
  <defs>
    <clipPath xmlns="http://www.w3.org/2000/svg" id="clip-path-corners-square-color-0-0-6355"><circle cx="17.5" cy="17.5" r="5.5" transform="rotate(0,17.5,17.5)"/><circle cx="28.5" cy="17.5" r="5.5" transform="rotate(0,28.5,17.5)"/><circle cx="39.5" cy="17.5" r="5.5" transform="rotate(0,39.5,17.5)"/><circle cx="50.5" cy="17.5" r="5.5" transform="rotate(0,50.5,17.5)"/><circle cx="61.5" cy="17.5" r="5.5" transform="rotate(0,61.5,17.5)"/><circle cx="72.5" cy="17.5" r="5.5" transform="rotate(0,72.5,17.5)"/><circle cx="83.5" cy="17.5" r="5.5" transform="rotate(0,83.5,17.5)"/><circle cx="17.5" cy="28.5" r="5.5" transform="rotate(0,17.5,28.5)"/><circle cx="83.5" cy="28.5" r="5.5" transform="rotate(0,83.5,28.5)"/><circle cx="17.5" cy="39.5" r="5.5" transform="rotate(0,17.5,39.5)"/><circle cx="83.5" cy="39.5" r="5.5" transform="rotate(0,83.5,39.5)"/><circle cx="17.5" cy="50.5" r="5.5" transform="rotate(0,17.5,50.5)"/><circle cx="83.5" cy="50.5" r="5.5" transform="rotate(0,83.5,50.5)"/><circle cx="17.5" cy="61.5" r="5.5" transform="rotate(0,17.5,61.5)"/><circle cx="83.5" cy="61.5" r="5.5" transform="rotate(0,83.5,61.5)"/><circle cx="17.5" cy="72.5" r="5.5" transform="rotate(0,17.5,72.5)"/><circle cx="83.5" cy="72.5" r="5.5" transform="rotate(0,83.5,72.5)"/><circle cx="17.5" cy="83.5" r="5.5" transform="rotate(0,17.5,83.5)"/><circle cx="28.5" cy="83.5" r="5.5" transform="rotate(0,28.5,83.5)"/><circle cx="39.5" cy="83.5" r="5.5" transform="rotate(0,39.5,83.5)"/><circle cx="50.5" cy="83.5" r="5.5" transform="rotate(0,50.5,83.5)"/><circle cx="61.5" cy="83.5" r="5.5" transform="rotate(0,61.5,83.5)"/><circle cx="72.5" cy="83.5" r="5.5" transform="rotate(0,72.5,83.5)"/><circle cx="83.5" cy="83.5" r="5.5" transform="rotate(0,83.5,83.5)"/></clipPath>
  </defs>
  <rect xmlns="http://www.w3.org/2000/svg" x="12" y="12" height="77" width="77" clip-path="url('#clip-path-corners-square-color-0-0-6355')" fill="#2c303a"/>
</svg>