<svg xmlns="http://www.w3.org/2000/svg" xmlns:xlink="http://www.w3.org/1999/xlink" width="101" height="101" viewBox="0 0 101 101">
  <defs>
    <clipPath xmlns="http://www.w3.org/2000/svg" id="clip-path-corners-square-color-0-0-6371"><path d="M 12 12v 11h 11a 11 11, 0, 0, 0, -11 -11" transform="rotate(-90,17.5,17.5)"/><rect x="23" y="12" width="11" height="11" transform="rotate(0,28.5,17.5)"/><rect x="34" y="12" width="11" height="11" transform="rotate(0,39.5,17.5)"/><rect x="45" y="12" width="11" height="11" transform="rotate(0,50.5,17.5)"/><rect x="56" y="12" width="11" height="11" transform="rotate(0,61.5,17.5)"/><rect x="67" y="12" width="11" height="11" transform="rotate(0,72.5,17.5)"/><rect x="78" y="12" width="11" height="11" transform="rotate(0,83.5,17.5)"/><rect x="12" y="23" width="11" height="11" transform="rotate(0,17.5,28.5)"/><rect x="78" y="23" width="11" height="11" transform="rotate(0,83.5,28.5)"/><rect x="12" y="34" width="11" height="11" transform="rotate(0,17.5,39.5)"/><rect x="78" y="34" width="11" height="11" transform="rotate(0,83.5,39.5)"/><rect x="12" y="45" width="11" height="11" transform="rotate(0,17.5,50.5)"/><rect x="78" y="45" width="11" height="11" transform="rotate(0,83.5,50.5)"/><rect x="12" y="56" width="11" height="11" transform="rotate(0,17.5,61.5)"/><rect x="78" y="56" width="11" height="11" transform="rotate(0,83.5,61.5)"/><rect x="12" y="67" width="11" height="11" transform="rotate(0,17.5,72.5)"/><rect x="78" y="67" width="11" height="11" transform="rotate(0,83.5,72.5)"/><rect x="12" y="78" width="11" height="11" transform="rotate(0,17.5,83.5)"/><rect x="23" y="78" width="11" height="11" transform="rotate(0,28.5,83.5)"/><rect x="34" y="78" width="11" height="11" transform="rotate(0,39.5,83.5)"/><rect x="45" y="78" width="11" height="11" transform="rotate(0,50.5,83.5)"/><rect x="56" y="78" width="11" height="11" transform="rotate(0,61.5,83.5)"/><rect x="67" y="78" width="11" height="11" transform="rotate(0,72.5,83.5)"/><path d="M 78 78v 11h 11a 11 11, 0, 0, 0, -11 -11" transform="rotate(90,83.5,83.5)"/></clipPath>
  </defs>
  <rect xmlns="http://www.w3.org/2000/svg" x="12" y="12" height="77" width="77" clip-path="url('#clip-path-corners-square-color-0-0-6371')" fill="#2c303a"/>
</svg>