<svg xmlns="http://www.w3.org/2000/svg" xmlns:xlink="http://www.w3.org/1999/xlink" width="100" height="120" viewBox="0 0 100 120">
  <defs>
      <clipPath xmlns="http://www.w3.org/2000/svg" id="clip-path-dot-color-6446">
        <path d="M 43 13v 13h 6.5a 6.5 6.5, 0, 0, 0, 0 -13" transform="rotate(180,49.5,19.5)"/>
        <rect x="56" y="13" width="13" height="13" transform="rotate(0,62.5,19.5)"/>
        <path d="M 69 13v 13h 13a 13 13, 0, 0, 0, -13 -13" transform="rotate(0,75.5,19.5)"/>
        <path d="M 17 26v 13h 6.5a 6.5 6.5, 0, 0, 0, 0 -13" transform="rotate(180,23.5,32.5)"/>
        <path d="M 30 26v 13h 13a 13 13, 0, 0, 0, -13 -13" transform="rotate(0,36.5,32.5)"/>
        <path d="M 69 26v 13h 6.5a 6.5 6.5, 0, 0, 0, 0 -13" transform="rotate(90,75.5,32.5)"/>
        <rect x="30" y="39" width="13" height="13" transform="rotate(0,36.5,45.5)"/>
        <path d="M 17 52v 13h 13a 13 13, 0, 0, 0, -13 -13" transform="rotate(-90,23.5,58.5)"/>
        <path d="M 30 52v 13h 13a 13 13, 0, 0, 0, -13 -13" transform="rotate(90,36.5,58.5)"/>
        <path d="M 69 52v 13h 6.5a 6.5 6.5, 0, 0, 0, 0 -13" transform="rotate(-90,75.5,58.5)"/>
        <path d="M 17 65v 13h 6.5a 6.5 6.5, 0, 0, 0, 0 -13" transform="rotate(90,23.5,71.5)"/>
        <path d="M 43 65v 13h 6.5a 6.5 6.5, 0, 0, 0, 0 -13" transform="rotate(180,49.5,71.5)"/>
        <rect x="56" y="65" width="13" height="13" transform="rotate(0,62.5,71.5)"/>
        <rect x="69" y="65" width="13" height="13" transform="rotate(0,75.5,71.5)"/>
        <circle cx="36.5" cy="84.5" r="6.5" transform="rotate(0,36.5,84.5)"/>
        <path d="M 56 78v 13h 13a 13 13, 0, 0, 0, -13 -13" transform="rotate(180,62.5,84.5)"/>
        <rect x="69" y="78" width="13" height="13" transform="rotate(0,75.5,84.5)"/>
      </clipPath>
  </defs>
  <rect xmlns="http://www.w3.org/2000/svg" x="0" y="0" height="300" width="300" clip-path="url('#clip-path-dot-color-6446')" fill="#2c303a"/>
</svg>